<svg width="24" height="24" viewBox="0 0 24 24" fill="none" xmlns="http://www.w3.org/2000/svg">
<path d="M9.58809 1.50006V2.71504M9.58809 2.71504C10.526 3.05697 11.4825 4.06716 12.0008 5C12.5351 4.03821 13.5354 2.9942 14.5008 2.68515M9.58809 2.71504C9.17564 2.56467 8.7668 2.54353 8.40043 2.71504C8.26028 2.78065 8.12634 2.87445 8.00079 3C6.80079 4.2 6.6673 5.50003 7.00063 5.99996C8.00065 5.49996 10.4009 5.99979 10.0009 7.99979C9.50086 10.4998 10.0009 9.79979 9.00086 9.79979C8.00086 9.79979 2.4005 6.00026 2.4005 6.00026C2.4005 6.00026 -0.499063 14.5001 5.00094 15.0001C6.50087 15.0001 9.00086 13.4998 9.00086 14.4998C9.00086 15.4998 6.50086 17.4998 7.50086 17.9998C8.30086 18.3998 9.83431 17.9998 10.501 17.9998C9.66764 18.9998 8.30086 20.3998 9.50086 20.7998C10.7009 21.1998 11.8338 22.4669 12.0004 22.8003C12.1671 22.4669 13.3008 21.1998 14.5008 20.7998C15.7008 20.3998 14.3343 19.0001 13.501 18.0001C14.1676 18.0001 15.7008 18.3998 16.5008 17.9998C17.5008 17.4998 15.0008 15.4998 15.0008 14.4998C15.0008 13.4998 17.501 15.0001 19.0009 15.0001C24.5009 14.5001 21.6004 6.00026 21.6004 6.00026C21.6004 6.00026 16.0008 9.79979 15.0008 9.79979C14.0008 9.79979 14.5008 10.4998 14.0008 7.99979C13.6008 5.99979 16.0006 5.49996 17.0006 5.99996C17.334 5.50003 17.2009 4.2 16.0009 3C15.8753 2.87445 15.7414 2.78065 15.6012 2.71504C15.2607 2.55563 14.8835 2.56264 14.5008 2.68515M14.5008 2.68515L14.5008 1.50006" stroke="#C6B29A" stroke-width="2" stroke-linecap="round" stroke-linejoin="round"/>
</svg>
