<svg width="24" height="24" viewBox="0 0 24 24" fill="none" xmlns="http://www.w3.org/2000/svg">
<circle cx="11.9996" cy="12" r="9.4" stroke="#C6B29A" stroke-width="2"/>
<path d="M8.99707 7.04688V17H7.00781V7.04688H8.99707Z" fill="#C6B29A"/>
<path d="M14.3812 13.4932H12.9867V11.832H14.3812C14.6637 11.832 14.8939 11.7682 15.0716 11.6406C15.2539 11.513 15.3861 11.3376 15.4681 11.1143C15.5501 10.8864 15.5911 10.6312 15.5911 10.3486C15.5911 10.0615 15.5479 9.79492 15.4613 9.54883C15.3792 9.29818 15.2494 9.09538 15.0716 8.94043C14.8984 8.78548 14.6683 8.70801 14.3812 8.70801H12.9867V17H10.9906V7.04688H14.3812C15.0511 7.04688 15.6276 7.18815 16.1107 7.4707C16.5938 7.75326 16.9629 8.1429 17.2181 8.63965C17.4779 9.13184 17.6077 9.69694 17.6077 10.335C17.6077 10.9775 17.4779 11.5358 17.2181 12.0098C16.9629 12.4792 16.5938 12.8438 16.1107 13.1035C15.6276 13.3633 15.0511 13.4932 14.3812 13.4932Z" fill="#C6B29A"/>
</svg>
